<?xml version="1.0" encoding="utf-8"?>
<!-- Svg Vector Icons : http://www.onlinewebfonts.com/icon -->
<!DOCTYPE svg PUBLIC "-//W3C//DTD SVG 1.1//EN" "http://www.w3.org/Graphics/SVG/1.1/DTD/svg11.dtd">
<svg version="1.1" xmlns="http://www.w3.org/2000/svg" xmlns:xlink="http://www.w3.org/1999/xlink" x="0px" y="0px" viewBox="0 0 1000 1000" enable-background="new 0 0 1000 1000" xml:space="preserve">
<metadata> Svg Vector Icons : http://www.onlinewebfonts.com/icon </metadata>
<g><g id="c2be471c56fc5b4dd571614bb305209c"><path d="M314.3,500l-65.1,43.6v-87.1L314.3,500z M474,393.2V271.7l-204,136l91.1,61L474,393.2z M730.1,407.7l-204-136v121.4l112.9,75.5L730.1,407.7z M269.9,592.3l204,136V606.8l-112.9-75.5L269.9,592.3z M526,606.8v121.4l204-136l-91.1-60.9L526,606.8z M500,438.4L407.9,500l92.1,61.6l92.1-61.6L500,438.4z M990,500c0,270.6-219.4,490-490,490C229.4,990,10,770.6,10,500C10,229.4,229.4,10,500,10C770.6,10,990,229.4,990,500z M803,407.7c0-1.1-0.1-2.3-0.2-3.4c-0.1-0.4-0.1-0.7-0.2-1.1c-0.1-0.7-0.3-1.5-0.5-2.2c-0.1-0.4-0.3-0.8-0.4-1.3c-0.2-0.6-0.4-1.3-0.7-1.9c-0.2-0.4-0.4-0.9-0.6-1.3c-0.3-0.6-0.6-1.2-0.9-1.7c-0.2-0.4-0.5-0.8-0.7-1.2c-0.3-0.5-0.7-1.1-1.1-1.6c-0.3-0.4-0.6-0.8-0.9-1.1c-0.4-0.5-0.8-1-1.3-1.4c-0.3-0.4-0.7-0.7-1-1c-0.5-0.4-1-0.8-1.5-1.2c-0.4-0.3-0.8-0.6-1.2-0.9c-0.2-0.1-0.3-0.2-0.4-0.3L514.4,201.4c-8.8-5.8-20.1-5.8-28.9,0L208.6,386c-0.1,0.1-0.3,0.2-0.4,0.3c-0.4,0.3-0.8,0.6-1.2,0.9c-0.5,0.4-1,0.8-1.5,1.2c-0.4,0.3-0.7,0.7-1,1c-0.5,0.4-0.9,0.9-1.3,1.4c-0.3,0.4-0.6,0.7-0.9,1.1c-0.4,0.5-0.7,1-1.1,1.6c-0.3,0.4-0.5,0.8-0.7,1.2c-0.3,0.6-0.6,1.1-0.9,1.7c-0.2,0.4-0.4,0.8-0.6,1.3c-0.3,0.6-0.5,1.3-0.7,1.9c-0.1,0.4-0.3,0.8-0.4,1.3c-0.2,0.7-0.3,1.5-0.5,2.2c-0.1,0.4-0.2,0.8-0.2,1.1c-0.2,1.1-0.2,2.2-0.2,3.4v184.6c0,1.2,0.1,2.3,0.2,3.4c0,0.4,0.1,0.8,0.2,1.1c0.1,0.7,0.3,1.5,0.5,2.2c0.1,0.4,0.3,0.8,0.4,1.3c0.2,0.6,0.4,1.3,0.7,1.9c0.2,0.4,0.4,0.8,0.6,1.3c0.3,0.6,0.6,1.2,0.9,1.7c0.2,0.4,0.5,0.8,0.7,1.2c0.3,0.5,0.7,1.1,1.1,1.6c0.3,0.4,0.6,0.8,0.9,1.1c0.4,0.5,0.8,1,1.3,1.4c0.3,0.4,0.7,0.7,1,1c0.5,0.4,1,0.8,1.5,1.2c0.4,0.3,0.8,0.6,1.2,0.9c0.1,0.1,0.3,0.2,0.4,0.3l276.9,184.6c4.4,2.9,9.4,4.4,14.4,4.4c5,0,10.1-1.5,14.4-4.4L791.4,614c0.2-0.1,0.3-0.2,0.4-0.3c0.4-0.3,0.8-0.6,1.2-0.9c0.5-0.4,1-0.8,1.5-1.2c0.4-0.3,0.7-0.7,1-1c0.5-0.4,0.9-0.9,1.3-1.4c0.3-0.4,0.6-0.7,0.9-1.1c0.4-0.5,0.8-1,1.1-1.6c0.2-0.4,0.5-0.8,0.7-1.2c0.3-0.6,0.6-1.1,0.9-1.7c0.2-0.4,0.4-0.8,0.6-1.3c0.3-0.6,0.5-1.3,0.7-1.9c0.1-0.4,0.3-0.8,0.4-1.3c0.2-0.7,0.3-1.4,0.5-2.2c0.1-0.4,0.2-0.8,0.2-1.1c0.2-1.1,0.2-2.3,0.2-3.4V407.7z M750.9,543.6v-87.1L685.8,500L750.9,543.6z"/></g></g>
</svg>