<svg xmlns="http://www.w3.org/2000/svg" enable-background="new 0 0 24 24" viewBox="0 0 24 24"><g fill="#b3b3b3"><path d="M12 15.5l-11.5-8 11.5-7 11.5 7zM24 7.5l-6.133 4.267 6.133 3.733z"/><path d="m12 23.5-11.5-8 11.5-7 11.5 7z"/><path d="m6.633 11.767-6.133 3.733v-8z"/></g><path d="m12 24c-.15 0-.3-.045-.428-.134l-11.25-7.826c-.209-.145-.329-.386-.322-.639s.143-.486.359-.618l11.25-6.848c.24-.146.54-.146.78 0l11.25 6.848c.216.132.352.364.359.618s-.113.494-.321.639l-11.25 7.826c-.127.089-.277.134-.427.134zm-9.876-8.534 9.876 6.87 9.876-6.871-9.876-6.011z"/><path d="m12 16.174c-.15 0-.3-.045-.428-.134l-11.25-7.827c-.209-.145-.329-.385-.322-.638s.144-.486.36-.618l11.25-6.848c.24-.146.54-.146.78 0l11.25 6.848c.216.132.352.364.36.618s-.113.494-.321.639l-11.25 7.826c-.129.089-.279.134-.429.134zm-9.876-8.534 9.876 6.87 9.876-6.871-9.876-6.011z"/><path d="M.75 16.174c-.414 0-.75-.336-.75-.75v-7.826c0-.414.336-.75.75-.75s.75.336.75.75v7.826c0 .414-.336.75-.75.75zM12 24c-.414 0-.75-.336-.75-.75v-7.826c0-.414.336-.75.75-.75s.75.336.75.75v7.826c0 .414-.336.75-.75.75zM12 9.326c-.414 0-.75-.336-.75-.75v-7.826c0-.414.336-.75.75-.75s.75.336.75.75v7.826c0 .414-.336.75-.75.75z"/></svg>